<svg width="181" height="34" viewBox="0 0 181 34" fill="none" xmlns="http://www.w3.org/2000/svg">
<g clip-path="url(#clip0_1_394)">
<path d="M68.1217 13.547H63.6861V20.9784C63.6861 22.5567 64.5467 23.1486 66.0032 23.1486C66.4666 23.1486 66.93 23.0828 67.2611 22.9513L66.9962 25.1872C66.599 25.3845 66.0032 25.4503 65.4736 25.4503C62.9578 25.4503 60.9055 24.0035 60.9055 21.3072V13.547H58.125V11.311H60.9055V8.48319L63.6861 7.03638V11.311H68.6513L68.1217 13.547Z" fill="white"/>
<path d="M78.1846 14.2047C77.9198 14.1389 77.5887 14.0732 77.1915 14.0732C75.3378 14.0732 73.4179 14.9281 73.4179 18.1505V25.1873H70.6374V11.3111H73.4179V14.1389C73.9476 12.166 75.5364 11.1138 77.4563 11.1138C77.8536 11.1138 78.5156 11.1795 78.8466 11.3111L78.1846 14.2047Z" fill="white"/>
<path d="M90.5647 25.1871V23.3457C89.9689 24.5952 88.711 25.5159 86.2615 25.5159C83.2161 25.5159 80.9652 23.6088 80.9652 20.4521V11.2451H83.7458V20.189C83.7458 21.6358 84.6726 23.0826 86.9897 23.0826C89.2406 23.0826 90.3661 21.6358 90.3661 20.189V11.3109H93.2128V25.2529H90.5647V25.1871Z" fill="white"/>
<path d="M100.229 25.3847C98.6403 25.3847 97.3163 24.9901 96.3232 24.3983L95.9922 21.5046C96.9852 22.3596 98.6403 23.083 100.295 23.083C101.619 23.083 102.48 22.3596 102.48 21.5046C102.48 20.5839 101.818 20.0578 100.56 19.5975C97.8459 18.611 96.3232 17.3615 96.3232 15.1255C96.3232 12.8238 98.1769 11.1797 100.957 11.1797C102.546 11.1797 104.069 11.7058 104.599 12.1004L104.069 14.4021C103.407 13.9418 102.48 13.4814 100.957 13.4814C99.832 13.4814 99.1037 14.0733 99.1037 14.994C99.1037 15.8489 99.6996 16.2435 101.09 16.7696C103.87 17.7561 105.393 19.0056 105.393 21.4389C105.261 23.5433 103.606 25.3847 100.229 25.3847Z" fill="white"/>
<path d="M116.649 13.547H112.213V20.9784C112.213 22.5567 113.074 23.1486 114.53 23.1486C114.994 23.1486 115.457 23.0828 115.788 22.9513L115.523 25.1872C115.126 25.3845 114.53 25.4503 114.001 25.4503C111.485 25.4503 109.433 24.0035 109.433 21.3072V13.547H106.652V11.311H109.433V8.48319L112.213 7.03638V11.311H117.178L116.649 13.547Z" fill="white"/>
<path d="M135.386 6.1156C134.724 5.85255 133.996 5.65526 133.334 5.65526C131.149 5.65526 130.023 6.97054 130.023 9.46957V11.2452H134.591L134.062 13.4812H130.09V25.1214H127.309V13.5469H124.926V11.311H127.309V9.40381C127.309 5.45796 129.56 3.35352 133.201 3.35352C134.26 3.35352 135.253 3.48504 135.982 3.81386L135.386 6.1156Z" fill="white"/>
<path d="M146.307 25.1871V23.3457C145.711 24.5952 144.453 25.5159 142.003 25.5159C138.958 25.5159 136.707 23.6088 136.707 20.4521V11.2451H139.488V20.189C139.488 21.6358 140.414 23.0826 142.732 23.0826C144.982 23.0826 146.108 21.6358 146.108 20.189V11.3109H148.888V25.2529H146.307V25.1871Z" fill="white"/>
<path d="M161.733 25.1872V16.3091C161.733 14.8623 160.806 13.4154 158.489 13.4154C156.238 13.4154 155.113 14.8623 155.113 16.3091V25.253H152.266V11.311H154.848V13.1524C155.444 11.9029 156.702 10.9822 159.151 10.9822C162.197 10.9822 164.448 12.8893 164.448 16.046V25.253H161.733V25.1872Z" fill="white"/>
<path d="M178.349 25.1872V23.6746C177.753 24.5953 176.429 25.516 174.112 25.516C171.001 25.516 167.359 23.0827 167.359 18.2162C167.359 13.9415 170.405 10.9164 174.443 10.9164C175.966 10.9164 177.687 11.5083 178.217 12.1001V3.35352H180.997V25.1872H178.349V25.1872ZM178.217 14.8622C177.753 14.4019 176.628 13.4812 174.708 13.4812C172.192 13.4812 170.14 15.3883 170.14 18.2819C170.14 21.1756 172.192 23.1485 174.708 23.1485C176.495 23.1485 177.621 22.2278 178.217 21.3729V14.8622Z" fill="white"/>
<path d="M38.398 7.36557H1.5889C0.860662 7.36557 0.264832 6.77369 0.264832 6.05029V1.31528C0.264832 0.591876 0.860662 0 1.5889 0H38.398C39.1262 0 39.722 0.591876 39.722 1.31528V5.98453C39.7882 6.7737 39.1924 7.36557 38.398 7.36557Z" fill="url(#paint0_linear_1_394)"/>
<path d="M39.7882 20.913V32.2244C39.7882 32.7506 39.5896 33.1451 39.2586 33.474L39.1924 33.5397C39.1924 33.5397 39.1262 33.6055 39.06 33.6055C38.729 33.8685 38.2655 34.0001 37.8021 34.0001C37.7359 34.0001 37.6697 34.0001 37.6035 34.0001C37.4049 34.0001 37.2063 33.9343 37.0739 33.8685L36.7429 33.737H36.6767L19.9272 25.9769L3.04535 33.737C2.78054 33.9343 2.44952 34.0001 2.0523 34.0001H1.85369C0.79444 34.0001 0 33.2109 0 32.2244V20.913L19.9272 10.9827L39.7882 20.913Z" fill="white"/>
<path d="M39.7868 20.9134V32.2248C39.7868 32.751 39.5882 33.1455 39.2572 33.4744L39.191 33.5401C39.191 33.5401 39.1248 33.6059 39.0586 33.6059C38.7275 33.8689 38.2641 34.0005 37.8007 34.0005C37.7345 34.0005 37.6683 34.0005 37.6021 34.0005C37.4035 34.0005 37.2049 33.9347 37.0725 33.8689L36.7414 33.7374H36.6752L19.9258 25.9773V11.0488L39.7868 20.9134Z" fill="url(#paint1_linear_1_394)"/>
</g>
<defs>
<linearGradient id="paint0_linear_1_394" x1="0.20697" y1="3.69436" x2="39.7783" y2="3.69436" gradientUnits="userSpaceOnUse">
<stop stop-color="white"/>
<stop offset="0.9944" stop-color="#CCE8F9"/>
</linearGradient>
<linearGradient id="paint1_linear_1_394" x1="29.8337" y1="34.0102" x2="29.8337" y2="11.0254" gradientUnits="userSpaceOnUse">
<stop stop-color="#F3F3F3"/>
<stop offset="1" stop-color="#CCE8F9"/>
</linearGradient>
<clipPath id="clip0_1_394">
<rect width="181" height="34" fill="white"/>
</clipPath>
</defs>
</svg>
